<svg width="433" height="433" viewBox="0 0 433 433" fill="none" xmlns="http://www.w3.org/2000/svg">
<path d="M136.693 16.926C110.779 28.1138 91.1595 46.8644 73.0367 68.459C56.891 87.6981 43.5901 109.246 33.0622 132.029C22.4883 154.912 16.5337 182.744 32.1338 204.805C41.8018 218.477 56.1272 224.671 69.4549 233.768C71.9144 235.446 75.3628 237.165 75.3377 240.51C75.2996 245.591 65.9866 251.002 62.7876 253.903C54.894 261.058 47.2533 268.541 40.6804 276.949C31.0574 289.26 23.718 303.82 22.3454 319.386C20.8507 336.339 26.62 353.449 36.3486 367.413C50.506 387.736 72.9293 403.572 96.3858 411.231C108.926 415.326 122.224 416.55 135.359 416.136C148.638 415.717 161.976 413.865 174.897 410.793C194.923 406.033 215.797 398.443 236.589 402.966C258.88 407.816 280.648 413.557 303.26 416.976C332.287 421.365 373.915 426.961 397.625 405.608C414.659 390.268 422.62 365.496 424.751 343.318C426.015 330.17 425.77 315.366 421.383 302.747C415.444 285.661 404.622 269.932 396.104 254.062C390.844 244.26 386.199 233.846 384.333 222.808C382.276 210.634 385.93 202.712 391.865 192.227C413.06 154.784 430.386 100.856 407.882 60.3489C400.814 47.6283 387.138 41.6962 372.814 41.2129C360.254 40.7895 347.894 44.3236 336.115 48.6995C313.969 56.9256 278.94 77.9036 255.547 63.8917C242.054 55.8094 236.9 39.0384 227.409 27.2669C217.2 14.6042 201.472 8.16636 185.459 7.29517C169.115 6.40665 151.667 10.4604 136.693 16.926Z" fill="#008584"/>
<path opacity="0.7" d="M136.693 16.926C110.779 28.1138 91.1595 46.8644 73.0367 68.459C56.891 87.6981 43.5901 109.246 33.0622 132.029C22.4883 154.912 16.5337 182.744 32.1338 204.805C41.8018 218.477 56.1272 224.671 69.4549 233.768C71.9144 235.446 75.3628 237.165 75.3377 240.51C75.2996 245.591 65.9866 251.002 62.7876 253.903C54.894 261.058 47.2533 268.541 40.6804 276.949C31.0574 289.26 23.718 303.82 22.3454 319.386C20.8507 336.339 26.62 353.449 36.3486 367.413C50.506 387.736 72.9293 403.572 96.3858 411.231C108.926 415.326 122.224 416.55 135.359 416.136C148.638 415.717 161.976 413.865 174.897 410.793C194.923 406.033 215.797 398.443 236.589 402.966C258.88 407.816 280.648 413.557 303.26 416.976C332.287 421.365 373.915 426.961 397.625 405.608C414.659 390.268 422.62 365.496 424.751 343.318C426.015 330.17 425.77 315.366 421.383 302.747C415.444 285.661 404.622 269.932 396.104 254.062C390.844 244.26 386.199 233.846 384.333 222.808C382.276 210.634 385.93 202.712 391.865 192.227C413.06 154.784 430.386 100.856 407.882 60.3489C400.814 47.6283 387.138 41.6962 372.814 41.2129C360.254 40.7895 347.894 44.3236 336.115 48.6995C313.969 56.9256 278.94 77.9036 255.547 63.8917C242.054 55.8094 236.9 39.0384 227.409 27.2669C217.2 14.6042 201.472 8.16636 185.459 7.29517C169.115 6.40665 151.667 10.4604 136.693 16.926Z" fill="white"/>
<path d="M240.064 395.079C299.177 395.079 347.097 389.294 347.097 382.158C347.097 375.022 299.177 369.237 240.064 369.237C180.951 369.237 133.031 375.022 133.031 382.158C133.031 389.294 180.951 395.079 240.064 395.079Z" fill="#263238" stroke="#263238" stroke-miterlimit="10"/>
<path d="M246.367 107.962L244.375 107.207L235.232 131.339L237.223 132.094L246.367 107.962Z" fill="#263238" stroke="#263238" stroke-miterlimit="10"/>
<path d="M250.678 111.047L238.688 106.504C237.835 106.181 237.406 105.228 237.729 104.376L239.126 100.689C239.449 99.8359 240.402 99.4073 241.255 99.7303L253.245 104.273C254.098 104.596 254.527 105.55 254.204 106.402L252.807 110.089C252.484 110.941 251.531 111.37 250.678 111.047Z" fill="#263238" stroke="#263238" stroke-miterlimit="10"/>
<path d="M260.843 87.7015L253.762 98.556" stroke="#263238" stroke-miterlimit="10"/>
<path d="M257.477 85.0369L250.396 95.8913" stroke="#263238" stroke-miterlimit="10"/>
<path d="M350.466 142.977L342.256 158.35" stroke="#263238" stroke-miterlimit="10"/>
<path d="M354.159 145.677L345.95 161.048" stroke="#263238" stroke-miterlimit="10"/>
<path d="M233.173 100.883L226.17 84.926" stroke="#263238" stroke-miterlimit="10"/>
<path d="M228.769 102.117L221.764 86.1592" stroke="#263238" stroke-miterlimit="10"/>
<path d="M124.594 134.247L122.393 116.96" stroke="#263238" stroke-miterlimit="10"/>
<path d="M120.02 134.184L117.818 116.897" stroke="#263238" stroke-miterlimit="10"/>
<path d="M347.384 331.324C362.124 311.037 371.747 287.179 374.445 261.083C376.191 244.179 374.902 227.6 370.982 211.8" stroke="#263238" stroke-miterlimit="10"/>
<path d="M340.759 339.795C342.28 337.985 343.758 336.141 345.191 334.266" stroke="#263238" stroke-miterlimit="10"/>
<path d="M359.465 223.208C358.881 219.897 358.171 216.619 357.341 213.376" stroke="#263238" stroke-miterlimit="10"/>
<path d="M342.065 314.993C352.126 298.482 358.688 279.799 360.768 259.669C361.82 249.484 361.675 239.428 360.435 229.617" stroke="#263238" stroke-miterlimit="10"/>
<path d="M318.869 343.681C326.648 336.265 333.554 328.051 339.423 319.158" stroke="#263238" stroke-miterlimit="10"/>
<path d="M80.9372 184.268C76.2314 195.755 73.0679 208.099 71.7273 221.072C69.8403 239.334 71.7429 257.114 76.8003 273.629" stroke="#263238" stroke-miterlimit="10"/>
<path d="M89.5687 166.944C87.1638 170.997 84.9659 175.194 82.9914 179.523" stroke="#263238" stroke-miterlimit="10"/>
<path d="M82.7602 251.064C83.3629 255.571 84.215 260.01 85.3019 264.365" stroke="#263238" stroke-miterlimit="10"/>
<path d="M93.0647 183.169C87.4894 195.163 83.7794 208.274 82.3436 222.169C81.5478 229.869 81.4846 237.477 82.0977 244.923" stroke="#263238" stroke-miterlimit="10"/>
<path d="M164.179 93.7125C163.356 93.6276 162.606 93.1011 162.276 92.2792C161.802 91.0989 162.374 89.7566 163.554 89.282C171.292 86.1713 186.833 79.7543 190.263 77.7339C192.545 76.3899 194.967 67.4545 196.57 61.5414C197.514 58.0593 198.405 54.7711 199.352 52.1947C202.694 43.1017 207.116 39.0073 225.864 37.1895C230.534 36.7366 235.446 36.534 240.464 36.5851C240.529 36.5859 240.594 36.5894 240.659 36.5954L258.259 38.2755C258.329 38.279 258.395 38.2919 258.464 38.3041C263.956 39.332 269.257 40.6379 274.218 42.1872C292.198 47.8006 295.69 52.7126 297.1 62.2966C297.686 66.2741 296.885 71.4364 296.111 76.428C295.469 80.5579 294.398 87.4703 295.67 88.6273C298.614 91.3067 312.513 100.766 319.451 105.394C320.51 106.1 320.795 107.53 320.089 108.589C319.383 109.649 317.952 109.933 316.895 109.228C316.063 108.673 296.503 95.6151 292.569 92.0359C289.465 89.2127 290.435 82.9611 291.558 75.7213C292.28 71.0674 293.027 66.2559 292.543 62.9677C291.535 56.1177 290.124 51.9791 272.847 46.5856C268.088 45.1004 263 43.8447 257.72 42.8532L240.32 41.1922C235.5 41.1463 230.786 41.342 226.309 41.7759C208.296 43.5226 206.066 47.2845 203.679 53.7838C202.802 56.1714 201.936 59.3652 201.019 62.7469C198.291 72.8107 196.231 79.5672 192.603 81.7037C188.02 84.403 166.202 93.1842 165.275 93.5566C164.913 93.7029 164.539 93.7497 164.179 93.7125Z" fill="#263238"/>
<path d="M182.247 137.387C208.636 130.752 227.99 117.262 225.474 107.254C222.958 97.2462 199.525 94.5114 173.136 101.145C146.747 107.78 127.393 121.27 129.909 131.278C132.425 141.286 155.857 144.021 182.247 137.387Z" fill="#008584"/>
<path opacity="0.29" d="M182.247 137.387C208.636 130.752 227.99 117.262 225.474 107.254C222.958 97.2462 199.525 94.5114 173.136 101.145C146.747 107.78 127.393 121.27 129.909 131.278C132.425 141.286 155.857 144.021 182.247 137.387Z" fill="black"/>
<path d="M182.247 137.387C208.636 130.752 227.99 117.262 225.474 107.254C222.958 97.2462 199.525 94.5114 173.136 101.145C146.747 107.78 127.393 121.27 129.909 131.278C132.425 141.286 155.857 144.021 182.247 137.387Z" stroke="#263238" stroke-miterlimit="10"/>
<path d="M185.489 140.502L177.719 142.603L164.412 82.6077C163.964 80.9528 164.944 79.2485 166.598 78.8008L168.376 78.3202C170.03 77.8724 171.735 78.8519 172.182 80.5068L185.489 140.502Z" fill="#263238" stroke="#263238" stroke-miterlimit="10"/>
<path d="M129.914 131.278C127.398 121.27 146.752 107.779 173.141 101.144C199.531 94.5101 222.964 97.2449 225.48 107.252C225.743 108.296 225.754 109.378 225.558 110.485C225.922 109.418 226.162 108.352 226.088 107.504C225.849 104.768 223.845 98.9284 219.13 92.0783C214.414 85.2283 209.349 83.7656 209.349 83.7656L207.312 83.1343C198.922 79.5612 185.024 79.2407 170.149 82.9801C157.535 86.1514 146.917 91.5631 140.502 97.4735C138.382 99.286 130.222 106.781 128.919 115.839C127.418 126.265 129.561 133.27 132.232 135.418C132.284 135.46 132.418 135.465 132.588 135.453C131.225 134.246 130.31 132.853 129.914 131.278Z" fill="#008584" stroke="#263238" stroke-miterlimit="10"/>
<path d="M143.433 102.359C142.974 102.311 142.532 102.092 142.211 101.711C141.556 100.931 141.657 99.7684 142.436 99.1145C148.151 94.3126 157.622 87.9683 170.289 85.0143C171.281 84.7823 172.271 85.3988 172.502 86.3913C172.733 87.3829 172.117 88.3736 171.125 88.6048C159.169 91.3933 150.215 97.3938 144.807 101.937C144.41 102.271 143.912 102.408 143.433 102.359Z" fill="white"/>
<path d="M136.499 109.221C136.165 109.186 135.836 109.06 135.552 108.838C134.752 108.21 134.611 107.053 135.239 106.252C135.278 106.202 136.216 105.01 138.006 103.196C138.72 102.47 139.887 102.461 140.612 103.178C141.337 103.892 141.345 105.06 140.631 105.784C139.004 107.433 138.149 108.517 138.14 108.527C137.734 109.043 137.107 109.284 136.499 109.221Z" fill="white"/>
<path d="M294.773 244.031C300.352 190.047 262.197 141.874 209.552 136.433C156.907 130.992 109.706 170.344 104.127 224.328C98.548 278.312 136.703 326.486 189.348 331.927C241.993 337.367 289.194 298.015 294.773 244.031Z" fill="white" stroke="#263238" stroke-miterlimit="10"/>
<path d="M246.13 131.653L211.964 126.821L209.969 132.126C160.835 140.809 121.236 181.733 115.774 234.583C109.193 298.257 154.653 355.124 217.311 361.6C279.97 368.076 336.1 321.709 342.681 258.035C349.087 196.064 306.194 140.548 246.13 131.653Z" fill="#A6A6A6" stroke="#263238" stroke-miterlimit="10"/>
<path d="M240.845 129.891L214.134 127.157L204.684 130.365C155.551 139.048 115.951 179.972 110.489 232.822C103.909 296.496 149.369 353.364 212.027 359.84C274.686 366.315 330.816 319.948 337.397 256.275C343.801 194.303 300.908 138.787 240.845 129.891Z" fill="#A6A6A6" stroke="#263238" stroke-miterlimit="10"/>
<path d="M257.754 133.748C296.216 155.604 320.202 199.261 315.298 246.699C308.718 310.373 252.588 356.74 189.929 350.264C182.367 349.483 175.058 347.961 168.058 345.788C181.214 353.26 196.06 358.189 212.025 359.84C274.684 366.315 330.814 319.948 337.395 256.275C343.182 200.295 308.739 149.587 257.754 133.748Z" fill="#263238" stroke="#263238" stroke-miterlimit="10"/>
<path d="M236.399 333.001L237.334 335.749L247.938 366.916L258.689 384.96C259.51 386.337 261.216 386.905 262.698 386.294C264.157 385.693 264.969 384.126 264.619 382.588L259.538 360.217L246.24 328.753" fill="#008584"/>
<path d="M236.399 333.001L237.334 335.749L247.938 366.916L258.689 384.96C259.51 386.337 261.216 386.905 262.698 386.294C264.157 385.693 264.969 384.126 264.619 382.588L259.538 360.217L246.24 328.753" stroke="#263238" stroke-miterlimit="10"/>
<path d="M139.428 311.501L137.53 313.698L116.008 338.611L99.2739 351.303C97.9966 352.272 96.2013 352.159 95.0565 351.036C93.9298 349.932 93.7644 348.175 94.6659 346.88L107.769 328.049L131.898 303.87" fill="#008584"/>
<path d="M139.428 311.501L137.53 313.698L116.008 338.611L99.2739 351.303C97.9966 352.272 96.2013 352.159 95.0565 351.036C93.9298 349.932 93.7644 348.175 94.6659 346.88L107.769 328.049L131.898 303.87" stroke="#263238" stroke-miterlimit="10"/>
<path d="M305.769 245.259C311.911 185.835 269.911 132.807 211.961 126.818C154.011 120.829 102.054 164.147 95.9127 223.571C89.7714 282.995 131.771 336.023 189.721 342.012C247.672 348.001 299.628 304.683 305.769 245.259Z" fill="#008584" stroke="#263238" stroke-miterlimit="10"/>
<path d="M295.187 244.164C300.709 190.733 262.945 143.053 210.839 137.668C158.732 132.283 112.016 171.232 106.494 224.663C100.972 278.095 138.736 325.775 190.842 331.16C242.948 336.545 289.665 297.596 295.187 244.164Z" fill="white" stroke="#263238" stroke-miterlimit="10"/>
<path d="M199.412 230.826L205.092 183.788L202.492 230.725L199.412 230.826Z" fill="#008584" stroke="#263238" stroke-miterlimit="10"/>
<path d="M198.417 236.654L127.712 266.725L199.206 231.889L198.417 236.654Z" fill="#008584" stroke="#263238" stroke-miterlimit="10"/>
<path d="M204.938 234.84C204.698 237.158 202.671 238.849 200.41 238.615C198.149 238.381 196.51 236.312 196.75 233.994C196.99 231.676 199.017 229.985 201.277 230.219C203.539 230.453 205.178 232.522 204.938 234.84Z" fill="#263238" stroke="#263238" stroke-miterlimit="10"/>
<path d="M293.098 243.957L287.639 243.392" stroke="#263238" stroke-miterlimit="10"/>
<path d="M114.056 225.451L108.596 224.887" stroke="#263238" stroke-miterlimit="10"/>
<path d="M287.668 200.413L282.52 202.434" stroke="#263238" stroke-miterlimit="10"/>
<path d="M119.176 266.397L114.028 268.418" stroke="#263238" stroke-miterlimit="10"/>
<path d="M255.913 157.596L252.644 162.153" stroke="#263238" stroke-miterlimit="10"/>
<path d="M149.039 306.676L145.77 311.233" stroke="#263238" stroke-miterlimit="10"/>
<path d="M127.444 186.406L122.818 183.376" stroke="#263238" stroke-miterlimit="10"/>
<path d="M278.878 285.455L274.252 282.425" stroke="#263238" stroke-miterlimit="10"/>
<path d="M164.913 153.085L162.646 147.957" stroke="#263238" stroke-miterlimit="10"/>
<path d="M239.037 320.872L236.77 315.744" stroke="#263238" stroke-miterlimit="10"/>
<path d="M210.047 145.41L210.624 139.825" stroke="#263238" stroke-miterlimit="10"/>
<path d="M191.07 329.019L191.648 323.421" stroke="#263238" stroke-miterlimit="10"/>
<path d="M282.111 151.166C283.43 151.97 285.149 151.586 286 150.297L317.761 102.227L312.856 99.2358L281.21 147.133C280.314 148.49 280.723 150.319 282.111 151.166Z" fill="#263238" stroke="#263238" stroke-miterlimit="10"/>
<path d="M253.968 110.054L335.109 159.54L344.383 143.756C348.454 137.283 346.403 128.771 339.804 124.746L282.562 89.8363C275.962 85.8111 267.312 87.7968 263.241 94.2702L253.968 110.054Z" fill="#008584" stroke="#263238" stroke-miterlimit="10"/>
<path d="M325.216 131.208C324.957 131.181 324.7 131.099 324.462 130.957L280.43 104.682C279.555 104.16 279.269 103.029 279.792 102.154C280.313 101.28 281.445 100.995 282.319 101.515L326.35 127.79C327.225 128.312 327.511 129.443 326.989 130.317C326.609 130.954 325.907 131.279 325.216 131.208Z" fill="white"/>
<path d="M274.693 101.06C274.435 101.033 274.177 100.951 273.939 100.809L267.723 97.0994C266.848 96.5772 266.563 95.4462 267.085 94.5716C267.607 93.6978 268.74 93.4137 269.613 93.9333L275.829 97.6424C276.703 98.1646 276.989 99.2956 276.467 100.169C276.087 100.807 275.385 101.132 274.693 101.06Z" fill="white"/>
<path d="M201.269 164.356L202.586 151.612C202.436 151.676 202.268 151.74 202.08 151.799C201.891 151.86 201.694 151.922 201.485 151.988C201.277 152.053 201.077 152.115 200.882 152.175C200.686 152.235 200.508 152.296 200.346 152.36L200.599 149.91C200.749 149.845 200.959 149.756 201.231 149.646C201.502 149.534 201.794 149.407 202.107 149.266C202.42 149.126 202.714 148.98 202.99 148.828C203.266 148.677 203.474 148.542 203.617 148.424L206.141 148.684L204.487 164.688L201.269 164.356Z" fill="#263238"/>
<path d="M206.991 164.948L207.232 162.617L211.579 157.116C211.906 156.71 212.216 156.316 212.509 155.934C212.802 155.552 213.05 155.158 213.254 154.752C213.458 154.348 213.584 153.915 213.632 153.453C213.679 152.993 213.626 152.641 213.469 152.399C213.311 152.155 213.08 152.018 212.771 151.986C212.424 151.951 212.145 152.022 211.931 152.199C211.719 152.376 211.559 152.626 211.456 152.949C211.35 153.271 211.277 153.635 211.235 154.044L211.153 154.834L208.031 154.512L208.12 153.662C208.218 152.714 208.453 151.883 208.825 151.17C209.198 150.456 209.727 149.918 210.413 149.556C211.1 149.195 211.963 149.068 213.003 149.175C214.404 149.32 215.422 149.802 216.057 150.619C216.693 151.437 216.943 152.511 216.806 153.841C216.739 154.487 216.576 155.076 216.321 155.609C216.064 156.142 215.746 156.652 215.365 157.137C214.983 157.624 214.577 158.132 214.145 158.659L210.842 162.731L215.41 163.203L215.142 165.791L206.991 164.948Z" fill="#263238"/>
<path d="M245.327 179.821L246.644 167.077C246.494 167.141 246.326 167.204 246.138 167.264C245.949 167.323 245.752 167.387 245.544 167.451C245.335 167.516 245.135 167.579 244.94 167.639C244.745 167.698 244.567 167.76 244.405 167.823L244.658 165.373C244.808 165.308 245.017 165.22 245.289 165.109C245.56 164.997 245.853 164.871 246.166 164.73C246.478 164.589 246.773 164.443 247.048 164.291C247.324 164.141 247.532 164.006 247.675 163.887L250.2 164.148L248.545 180.151L245.327 179.821Z" fill="#263238"/>
<path d="M268.793 212.343L269.033 210.012L273.381 204.511C273.707 204.106 274.017 203.712 274.311 203.329C274.603 202.947 274.851 202.553 275.055 202.148C275.259 201.742 275.385 201.31 275.433 200.849C275.481 200.388 275.427 200.036 275.27 199.794C275.113 199.551 274.881 199.414 274.572 199.382C274.225 199.346 273.946 199.417 273.732 199.594C273.52 199.771 273.36 200.022 273.257 200.344C273.151 200.666 273.078 201.031 273.036 201.439L272.955 202.229L269.833 201.906L269.92 201.057C270.018 200.108 270.253 199.277 270.626 198.564C270.998 197.851 271.527 197.313 272.213 196.951C272.9 196.59 273.763 196.462 274.803 196.57C276.205 196.714 277.222 197.196 277.858 198.013C278.493 198.832 278.744 199.906 278.606 201.236C278.539 201.882 278.377 202.471 278.121 203.003C277.865 203.536 277.546 204.046 277.165 204.532C276.783 205.019 276.377 205.526 275.946 206.053L272.643 210.125L277.21 210.597L276.942 213.186L268.793 212.343Z" fill="#263238"/>
<path d="M279.258 249.447C278.166 249.334 277.33 249.035 276.751 248.55C276.171 248.064 275.788 247.428 275.604 246.644C275.419 245.86 275.378 244.973 275.48 243.986L275.539 243.413L278.756 243.745C278.754 243.758 278.747 243.831 278.733 243.963C278.72 244.094 278.707 244.213 278.696 244.318C278.642 244.845 278.629 245.276 278.66 245.612C278.69 245.948 278.781 246.201 278.933 246.37C279.083 246.538 279.307 246.638 279.602 246.669C279.897 246.699 280.127 246.644 280.291 246.501C280.455 246.359 280.58 246.132 280.664 245.82C280.749 245.509 280.815 245.117 280.865 244.642C280.946 243.853 280.902 243.239 280.733 242.802C280.564 242.365 280.146 242.106 279.479 242.023C279.467 242.022 279.396 242.014 279.267 242.001C279.14 241.988 279.01 241.974 278.882 241.961L279.117 239.69C279.206 239.699 279.297 239.708 279.386 239.717C279.476 239.727 279.56 239.736 279.637 239.743C280.317 239.814 280.793 239.67 281.065 239.311C281.335 238.953 281.512 238.373 281.595 237.569C281.66 236.95 281.628 236.467 281.501 236.121C281.375 235.775 281.093 235.58 280.657 235.535C280.232 235.491 279.934 235.646 279.76 236.001C279.588 236.357 279.471 236.823 279.411 237.403C279.398 237.534 279.384 237.668 279.37 237.807C279.355 237.946 279.341 238.088 279.326 238.231L276.109 237.899L276.209 236.931C276.309 235.969 276.562 235.174 276.972 234.543C277.38 233.914 277.921 233.46 278.592 233.183C279.263 232.906 280.043 232.814 280.929 232.905C281.828 232.997 282.58 233.242 283.19 233.637C283.798 234.033 284.243 234.568 284.523 235.243C284.803 235.917 284.895 236.729 284.797 237.678C284.7 238.612 284.433 239.377 283.995 239.971C283.558 240.564 283.068 240.907 282.526 240.997C282.871 241.166 283.174 241.41 283.433 241.73C283.692 242.05 283.88 242.465 283.996 242.977C284.112 243.488 284.13 244.126 284.051 244.89C283.951 245.865 283.724 246.713 283.37 247.435C283.016 248.157 282.502 248.7 281.828 249.063C281.155 249.426 280.297 249.554 279.258 249.447Z" fill="#263238"/>
<path d="M266.872 282.073L267.243 278.476L262.446 277.98L262.697 275.549L267.793 265.992L271.531 266.378L270.501 276.337L271.947 276.487L271.694 278.937L270.248 278.787L269.877 282.384L266.872 282.073ZM265.145 275.784L267.497 276.027L268.185 269.368L265.145 275.784Z" fill="#263238"/>
<path d="M232.704 310.315C231.561 310.198 230.718 309.901 230.177 309.426C229.635 308.95 229.3 308.327 229.172 307.555C229.044 306.783 229.031 305.903 229.133 304.916L232.236 305.236C232.174 305.842 232.154 306.339 232.179 306.728C232.204 307.116 232.295 307.402 232.452 307.584C232.608 307.768 232.847 307.869 233.17 307.888C233.506 307.91 233.757 307.795 233.926 307.548C234.095 307.299 234.22 306.929 234.303 306.438C234.386 305.947 234.464 305.354 234.536 304.654C234.591 304.128 234.611 303.658 234.594 303.244C234.579 302.83 234.496 302.491 234.348 302.23C234.201 301.969 233.953 301.82 233.606 301.784C233.285 301.751 233.009 301.842 232.78 302.058C232.55 302.273 232.364 302.626 232.222 303.118L229.448 302.831L230.69 293.635L237.973 294.387L237.688 297.153L232.987 296.667L232.473 299.949C232.619 299.777 232.88 299.641 233.255 299.542C233.629 299.44 234.023 299.391 234.438 299.394C235.245 299.384 235.9 299.602 236.406 300.046C236.912 300.492 237.261 301.125 237.456 301.942C237.651 302.761 237.688 303.744 237.57 304.89C237.481 305.746 237.349 306.528 237.172 307.236C236.996 307.943 236.732 308.541 236.383 309.031C236.034 309.52 235.562 309.882 234.967 310.112C234.37 310.341 233.616 310.41 232.704 310.315Z" fill="#263238"/>
<path d="M193.548 318.768C192.533 318.664 191.731 318.352 191.144 317.831C190.555 317.312 190.153 316.641 189.94 315.82C189.725 315 189.67 314.082 189.776 313.068L190.375 307.278C190.482 306.238 190.697 305.321 191.02 304.529C191.341 303.737 191.835 303.14 192.5 302.735C193.166 302.332 194.076 302.189 195.231 302.308C196.233 302.412 197.007 302.652 197.552 303.027C198.097 303.403 198.46 303.907 198.642 304.538C198.822 305.169 198.867 305.933 198.776 306.828C198.77 306.882 198.768 306.93 198.77 306.978C198.772 307.024 198.771 307.068 198.767 307.107L195.741 306.794C195.808 306.148 195.81 305.666 195.745 305.346C195.68 305.028 195.43 304.845 194.994 304.8C194.698 304.77 194.467 304.838 194.301 305.007C194.133 305.176 194 305.488 193.903 305.945C193.803 306.401 193.71 307.043 193.625 307.872L193.477 309.295C193.661 309.034 193.934 308.847 194.296 308.732C194.658 308.615 195.058 308.574 195.497 308.606C196.321 308.664 196.96 308.923 197.412 309.382C197.865 309.843 198.163 310.436 198.309 311.162C198.455 311.889 198.483 312.687 198.394 313.557C198.278 314.677 198.047 315.647 197.703 316.472C197.357 317.295 196.852 317.912 196.187 318.322C195.519 318.733 194.64 318.881 193.548 318.768ZM193.838 316.343C194.133 316.373 194.359 316.293 194.515 316.103C194.67 315.912 194.792 315.619 194.878 315.221C194.964 314.825 195.039 314.329 195.1 313.736C195.155 313.21 195.184 312.753 195.193 312.369C195.2 311.983 195.144 311.675 195.026 311.443C194.907 311.211 194.68 311.077 194.347 311.043C194.192 311.027 194.041 311.045 193.893 311.097C193.745 311.148 193.615 311.217 193.502 311.305C193.388 311.394 193.302 311.481 193.24 311.568L192.971 314.176C192.934 314.532 192.929 314.871 192.953 315.193C192.979 315.514 193.062 315.78 193.204 315.987C193.343 316.195 193.555 316.314 193.838 316.343Z" fill="#263238"/>
<path d="M150.687 306.306L155.474 293.161L151.216 292.721L151.475 290.211L158.873 290.976L158.638 293.249L153.828 306.631L150.687 306.306Z" fill="#263238"/>
<path d="M126.915 269.923C125.861 269.814 125.043 269.513 124.457 269.019C123.872 268.528 123.484 267.887 123.292 267.101C123.1 266.317 123.056 265.436 123.156 264.461C123.209 264.068 123.292 263.687 123.401 263.319C123.509 262.95 123.655 262.613 123.836 262.304C124.017 261.998 124.232 261.734 124.483 261.513C124.733 261.293 125.02 261.119 125.345 260.993C124.977 260.65 124.669 260.174 124.421 259.57C124.171 258.966 124.079 258.22 124.145 257.335C124.224 256.439 124.449 255.682 124.817 255.069C125.185 254.454 125.689 254.006 126.329 253.728C126.968 253.448 127.731 253.353 128.617 253.445C129.515 253.538 130.246 253.79 130.808 254.201C131.369 254.612 131.764 255.152 131.993 255.821C132.222 256.49 132.278 257.272 132.159 258.165C132.055 259.06 131.825 259.777 131.469 260.32C131.115 260.863 130.717 261.257 130.277 261.505C130.568 261.695 130.814 261.924 131.015 262.19C131.214 262.458 131.37 262.76 131.485 263.097C131.599 263.435 131.675 263.797 131.713 264.179C131.751 264.564 131.751 264.953 131.711 265.347C131.635 266.324 131.42 267.178 131.066 267.907C130.712 268.636 130.197 269.182 129.524 269.545C128.85 269.907 127.981 270.033 126.915 269.923ZM127.165 267.494C127.512 267.53 127.777 267.423 127.958 267.176C128.139 266.929 128.268 266.626 128.344 266.266C128.42 265.91 128.474 265.578 128.505 265.276C128.559 264.868 128.585 264.472 128.579 264.085C128.574 263.699 128.507 263.376 128.378 263.116C128.249 262.856 128.011 262.708 127.664 262.672C127.331 262.638 127.073 262.735 126.893 262.963C126.714 263.19 126.583 263.489 126.5 263.86C126.415 264.231 126.352 264.627 126.309 265.049C126.278 265.351 126.263 265.689 126.263 266.062C126.263 266.435 126.33 266.757 126.465 267.031C126.597 267.305 126.833 267.459 127.165 267.494ZM127.933 260.064C128.152 260.087 128.34 260.016 128.501 259.853C128.66 259.689 128.794 259.434 128.901 259.085C129.009 258.736 129.089 258.298 129.144 257.772C129.199 257.231 129.164 256.795 129.037 256.463C128.908 256.13 128.684 255.948 128.363 255.914C128.042 255.881 127.779 256.013 127.572 256.312C127.366 256.609 127.235 257.022 127.182 257.548C127.127 258.076 127.116 258.524 127.149 258.892C127.182 259.263 127.266 259.545 127.402 259.738C127.538 259.933 127.715 260.042 127.933 260.064Z" fill="#263238"/>
<path d="M119.956 232.951C118.953 232.847 118.18 232.608 117.635 232.232C117.09 231.856 116.726 231.349 116.545 230.711C116.364 230.074 116.321 229.307 116.414 228.411C116.418 228.372 116.422 228.329 116.427 228.283C116.431 228.237 116.436 228.194 116.44 228.155L119.445 228.466C119.378 229.112 119.383 229.594 119.461 229.915C119.538 230.236 119.796 230.418 120.231 230.463C120.526 230.494 120.753 230.425 120.915 230.255C121.075 230.085 121.202 229.769 121.295 229.306C121.388 228.843 121.477 228.203 121.561 227.386L121.709 225.964C121.514 226.223 121.238 226.408 120.882 226.517C120.527 226.627 120.137 226.673 119.711 226.656C118.886 226.584 118.247 226.304 117.791 225.818C117.335 225.331 117.035 224.709 116.893 223.948C116.751 223.188 116.725 222.372 116.815 221.504C116.931 220.384 117.168 219.433 117.528 218.652C117.889 217.87 118.406 217.288 119.082 216.905C119.758 216.523 120.616 216.385 121.657 216.492C122.683 216.599 123.491 216.895 124.077 217.382C124.662 217.868 125.061 218.505 125.271 219.292C125.482 220.079 125.534 220.986 125.429 222.014L124.812 227.981C124.705 229.021 124.49 229.938 124.167 230.729C123.845 231.522 123.352 232.119 122.687 232.523C122.021 232.928 121.111 233.07 119.956 232.951ZM120.896 224.222C121.153 224.249 121.366 224.198 121.534 224.069C121.703 223.941 121.84 223.814 121.943 223.692L122.213 221.084C122.251 220.715 122.261 220.374 122.241 220.058C122.222 219.744 122.151 219.484 122.03 219.278C121.909 219.073 121.7 218.954 121.405 218.924C121.122 218.894 120.9 218.975 120.737 219.165C120.574 219.354 120.45 219.648 120.363 220.045C120.277 220.442 120.203 220.937 120.142 221.53C120.089 222.043 120.058 222.496 120.05 222.888C120.042 223.28 120.096 223.592 120.216 223.824C120.336 224.054 120.562 224.187 120.896 224.222Z" fill="#263238"/>
<path d="M131.644 198.179L132.961 185.435C132.811 185.499 132.643 185.562 132.456 185.622C132.267 185.682 132.069 185.745 131.861 185.811C131.652 185.876 131.452 185.938 131.258 185.998C131.062 186.057 130.885 186.119 130.723 186.182L130.976 183.732C131.125 183.667 131.335 183.579 131.607 183.468C131.878 183.356 132.17 183.23 132.483 183.089C132.796 182.949 133.09 182.802 133.366 182.651C133.642 182.5 133.85 182.365 133.993 182.246L136.516 182.507L134.862 198.511L131.644 198.179Z" fill="#263238"/>
<path d="M141.845 199.532C140.908 199.435 140.144 199.16 139.554 198.706C138.964 198.253 138.545 197.667 138.295 196.949C138.045 196.231 137.966 195.417 138.06 194.508L138.809 187.257C138.906 186.322 139.142 185.518 139.518 184.844C139.892 184.171 140.415 183.669 141.084 183.338C141.755 183.008 142.579 182.894 143.554 182.994C144.531 183.096 145.31 183.375 145.892 183.834C146.474 184.294 146.88 184.893 147.108 185.628C147.338 186.364 147.404 187.2 147.307 188.135L146.558 195.386C146.466 196.282 146.222 197.059 145.83 197.717C145.438 198.375 144.906 198.867 144.237 199.19C143.566 199.514 142.77 199.629 141.845 199.532ZM142.149 196.589C142.457 196.621 142.69 196.541 142.845 196.351C143.001 196.161 143.11 195.933 143.17 195.666C143.229 195.399 143.269 195.167 143.289 194.969L144.022 187.876C144.045 187.652 144.059 187.397 144.062 187.111C144.065 186.826 144.011 186.567 143.899 186.335C143.786 186.105 143.57 185.973 143.249 185.94C142.927 185.907 142.688 185.992 142.531 186.194C142.375 186.398 142.268 186.64 142.213 186.921C142.157 187.201 142.119 187.453 142.096 187.678L141.363 194.77C141.342 194.968 141.338 195.204 141.349 195.478C141.36 195.752 141.422 195.998 141.536 196.216C141.648 196.434 141.853 196.559 142.149 196.589Z" fill="#263238"/>
<path d="M165.842 172.13L167.16 159.386C167.01 159.45 166.842 159.513 166.654 159.573C166.465 159.632 166.268 159.696 166.059 159.761C165.85 159.826 165.65 159.889 165.455 159.948C165.26 160.008 165.082 160.07 164.92 160.133L165.173 157.683C165.323 157.618 165.532 157.53 165.804 157.419C166.075 157.307 166.367 157.181 166.681 157.04C166.993 156.899 167.288 156.753 167.563 156.601C167.839 156.451 168.047 156.316 168.19 156.197L170.715 156.458L169.061 172.461L165.842 172.13Z" fill="#263238"/>
<path d="M173.338 172.904L174.655 160.16C174.505 160.224 174.337 160.287 174.149 160.347C173.959 160.407 173.763 160.47 173.554 160.536C173.345 160.601 173.145 160.663 172.951 160.723C172.755 160.782 172.577 160.844 172.415 160.907L172.668 158.457C172.818 158.392 173.028 158.304 173.3 158.193C173.571 158.081 173.862 157.955 174.176 157.814C174.489 157.673 174.783 157.527 175.058 157.376C175.335 157.225 175.543 157.09 175.685 156.971L178.21 157.232L176.556 173.235L173.338 172.904Z" fill="#263238"/>
</svg>
